Walking02_kinetics.mot
version=1
nRows=20
nColumns=19
inDegrees=yes
endheader
time	1_ground_force_vx	1_ground_force_vy	1_ground_force_vz	1_ground_force_px	1_ground_force_py	1_ground_force_pz	2_ground_force_vx	2_ground_force_vy	2_ground_force_vz	2_ground_force_px	2_ground_force_py	2_ground_force_pz	1_ground_torque_x	1_ground_torque_y	1_ground_torque_z	2_ground_torque_x	2_ground_torque_y	2_ground_torque_z
  0.00000000	  0.00000000	  0.00000000	  0.00000000	  0.30048871	 -0.00042294	 -0.20058549	-13.17316775	 99.04309417	  0.85630996	 -0.50069893	  0.00273291	 -0.04667425	  0.00000000	  0.00000000	  0.00000000	 -0.00008370	 -0.06422591	 -0.00000212
  0.00100000	  0.00000000	  0.00000000	  0.00000000	  0.30048871	 -0.00042294	 -0.20058549	-17.88670074	152.61971822	  0.91257017	 -0.49504742	  0.00272544	 -0.04366937	  0.00000000	  0.00000000	  0.00000000	 -0.00004425	 -0.03395528	 -0.00000112
  0.00200000	  0.00000000	  0.00000000	  0.00000000	  0.30048871	 -0.00042294	 -0.20058549	-22.60285115	203.78284038	  1.05648371	 -0.48966317	  0.00271833	 -0.04084054	  0.00000000	  0.00000000	  0.00000000	 -0.00000473	 -0.00362924	 -0.00000012
  0.00300000	  0.00000000	  0.00000000	  0.00000000	  0.30048871	 -0.00042294	 -0.20058549	-27.23065973	250.75270796	  1.32009572	 -0.48473680	  0.00271183	 -0.03829605	  0.00000000	  0.00000000	  0.00000000	  0.00003474	  0.02665913	  0.00000088
  0.00400000	  0.00000000	  0.00000000	  0.00000000	  0.30048871	 -0.00042294	 -0.20058549	-31.70354560	292.01611152	  1.71645423	 -0.48043277	  0.00270615	 -0.03613304	  0.00000000	  0.00000000	  0.00000000	  0.00007325	  0.05620810	  0.00000186
  0.00500000	  0.00000000	  0.00000000	  0.00000000	  0.30048871	 -0.00042294	 -0.20058549	-35.98421198	326.49134794	  2.23788350	 -0.47686367	  0.00270144	 -0.03442084	  0.00000000	  0.00000000	  0.00000000	  0.00010929	  0.08386520	  0.00000277
  0.00600000	  0.00000000	  0.00000000	  0.00000000	  0.30048871	 -0.00042294	 -0.20058549	-40.06554014	353.69143597	  2.86029199	 -0.47406034	  0.00269774	 -0.03317968	  0.00000000	  0.00000000	  0.00000000	  0.00014140	  0.10850026	  0.00000358
  0.00700000	  0.00000000	  0.00000000	  0.00000000	  0.30048871	 -0.00042294	 -0.20058549	-43.96656690	373.78283310	  3.54958091	 -0.47196539	  0.00269499	 -0.03237400	  0.00000000	  0.00000000	  0.00000000	  0.00016867	  0.12942778	  0.00000428
  0.00800000	  0.00000000	  0.00000000	  0.00000000	  0.30048871	 -0.00042294	 -0.20058549	-47.72344675	387.47216232	  4.26715120	 -0.47046663	  0.00269302	 -0.03193204	  0.00000000	  0.00000000	  0.00000000	  0.00019094	  0.14651318	  0.00000484
  0.00900000	  0.00000000	  0.00000000	  0.00000000	  0.30048871	 -0.00042294	 -0.20058549	-51.37916523	395.80340836	  4.97421159	 -0.46944388	  0.00269168	 -0.03177529	  0.00000000	  0.00000000	  0.00000000	  0.00020859	  0.16005679	  0.00000529
  0.01000000	  0.00000000	  0.00000000	  0.00000000	  0.30048871	 -0.00042294	 -0.20058549	-54.97665201	399.98360735	  5.63545174	 -0.46879163	  0.00269083	 -0.03183338	  0.00000000	  0.00000000	  0.00000000	  0.00022239	  0.17064658	  0.00000564
  0.01100000	  0.00000000	  0.00000000	  0.00000000	  0.30048871	 -0.00042294	 -0.20058549	-58.55579937	401.26352796	  6.22202762	 -0.46841343	  0.00269035	 -0.03204179	  0.00000000	  0.00000000	  0.00000000	  0.00023332	  0.17903388	  0.00000592
  0.01200000	  0.00000000	  0.00000000	  0.00000000	  0.30048871	 -0.00042294	 -0.20058549	-62.15157148	400.84248478	  6.71285838	 -0.46821229	  0.00269009	 -0.03233665	  0.00000000	  0.00000000	  0.00000000	  0.00024240	  0.18600723	  0.00000615
  0.01300000	  0.00000000	  0.00000000	  0.00000000	  0.30048871	 -0.00042294	 -0.20058549	-65.79115566	399.77581849	  7.09372363	 -0.46809488	  0.00268995	 -0.03265741	  0.00000000	  0.00000000	  0.00000000	  0.00025052	  0.19223153	  0.00000635
  0.01400000	  0.00000000	  0.00000000	  0.00000000	  0.30048871	 -0.00042294	 -0.20058549	-69.49065389	398.89712480	  7.35564794	 -0.46798418	  0.00268982	 -0.03295425	  0.00000000	  0.00000000	  0.00000000	  0.00025804	  0.19800783	  0.00000654
  0.01500000	  0.00000000	  0.00000000	  0.00000000	  0.30048871	 -0.00042294	 -0.20058549	-73.25261594	398.77802222	  7.49454239	 -0.46782845	  0.00268962	 -0.03319350	  0.00000000	  0.00000000	  0.00000000	  0.00026442	  0.20290349	  0.00000670
  0.01600000	  0.00000000	  0.00000000	  0.00000000	  0.30048871	 -0.00042294	 -0.20058549	-77.06475308	399.72914900	  7.51212034	 -0.46760296	  0.00268933	 -0.03335855	  0.00000000	  0.00000000	  0.00000000	  0.00026768	  0.20540398	  0.00000679
  0.01700000	  0.00000000	  0.00000000	  0.00000000	  0.30048871	 -0.00042294	 -0.20058549	-80.89966563	401.83651188	  7.41610840	 -0.46730428	  0.00268895	 -0.03344619	  0.00000000	  0.00000000	  0.00000000	  0.00026467	  0.20309330	  0.00000671
  0.01800000	  0.00000000	  0.00000000	  0.00000000	  0.30048871	 -0.00042294	 -0.20058549	-84.71549708	405.02485737	  7.21841511	 -0.46693905	  0.00268847	 -0.03345914	  0.00000000	  0.00000000	  0.00000000	  0.00025231	  0.19361006	  0.00000640
  0.01900000	  0.00000000	  0.00000000	  0.00000000	  0.30048871	 -0.00042294	 -0.20058549	-88.45729506	409.12344081	  6.93242709	 -0.46651431	  0.00268792	 -0.03339983	  0.00000000	  0.00000000	  0.00000000	  0.00022896	  0.17568875	  0.00000580
